<svg xmlns="http://www.w3.org/2000/svg" version="1.1" viewBox="-0 0.0 100.0 100.0">
 <path d="m39.453 48.117c-4.9727 0-9.75-0.86719-13.891-3.2773-0.69922-0.40625-0.94141-1.3047-0.53125-2.0039 0.40625-0.70313 1.3047-0.94141 2.0039-0.53516 9.2188 5.3594 22.703 2.0703 33.535-0.57031 5.2969-1.2891 9.875-2.4062 13.562-2.5234v0.003907c0.80859-0.023438 1.4844 0.60937 1.5078 1.4219 0.023437 0.80859-0.60938 1.4844-1.4219 1.5078-3.3789 0.10547-8.0312 1.2422-12.957 2.4375-6.7617 1.6523-14.5 3.5391-21.809 3.5391z"/>
 <path d="m61.473 95.996h-22.945c-3.2227 0-5.7812-2.4727-6.3672-6.1562l-9.4414-59.422c-0.12891-0.80078 0.41406-1.5508 1.2148-1.6758 0.80078-0.12891 1.5508 0.41406 1.6758 1.2148l9.4453 59.426c0.27344 1.6992 1.3438 3.6836 3.4727 3.6836h22.945c2.1328 0 3.2031-1.9844 3.4688-3.6836l9.4453-59.426h0.003906c0.058594-0.38281 0.26953-0.72656 0.58594-0.95703 0.3125-0.22656 0.70703-0.32031 1.0898-0.25781 0.80078 0.125 1.3438 0.875 1.2148 1.6758l-9.4453 59.426c-0.58594 3.6797-3.1406 6.1523-6.3633 6.1523z"/>
 <path d="m75.469 31.652h-50.938c-2.9844-0.003906-5.4023-2.4219-5.4062-5.4102v-0.039063 0.003906c0.003906-2.9883 2.4219-5.4062 5.4062-5.4062l50.938-0.003906c2.9844 0.003906 5.4023 2.4219 5.4062 5.4062v0.039063c-0.003906 2.9883-2.4219 5.4062-5.4062 5.4102zm-50.938-7.9258c-1.3672 0.003907-2.4727 1.1094-2.4766 2.4766v0.039063c0 1.3711 1.1094 2.4805 2.4766 2.4805h50.938c1.3672 0 2.4766-1.1094 2.4766-2.4805v-0.039063c-0.003906-1.3672-1.1094-2.4727-2.4766-2.4766z"/>
 <path d="m57.906 89.844c-0.53906 0-1.0664-0.14062-1.5312-0.41406l-4.3984-2.5391h-0.003906c-1.4688-0.84766-1.9727-2.7266-1.125-4.1992l2.5391-4.3984v-0.003907c0.84766-1.4688 2.7266-1.9727 4.1992-1.125l4.3984 2.5391c0.70703 0.41016 1.2266 1.082 1.4375 1.8711 0.21094 0.78516 0.097656 1.625-0.3125 2.332l-2.5391 4.3984c-0.55078 0.95312-1.5664 1.5391-2.6641 1.5391zm-4.5234-5.6875c-0.035156 0.066406-0.011718 0.15234 0.054688 0.19531l4.3984 2.5391c0.070312 0.035156 0.15625 0.011719 0.19531-0.054687l2.5391-4.3984c0.023438-0.035156 0.027344-0.074219 0.015626-0.11328-0.007813-0.039063-0.03125-0.070313-0.066407-0.085938l-4.3984-2.5391h-0.003906c-0.066407-0.039063-0.15234-0.015625-0.19531 0.050781z"/>
 <path d="m47.188 62.32c-0.53906 0-1.0703-0.14453-1.5352-0.41406l-4.3984-2.5391h-0.003906c-1.4688-0.85156-1.9727-2.7305-1.125-4.2031l2.5391-4.3984c0.41016-0.70703 1.082-1.2227 1.8711-1.4375 0.79297-0.21094 1.6328-0.097656 2.3398 0.3125l4.3984 2.5391v-0.003907c1.4727 0.85156 1.9766 2.7305 1.125 4.2031l-2.5391 4.3984c-0.40234 0.71094-1.0781 1.2266-1.8672 1.4336-0.26172 0.074218-0.53516 0.10937-0.80469 0.10937zm-1.8516-10.156h-0.003907c-0.050781 0-0.10156 0.027344-0.12891 0.074219l-2.5391 4.3984v0.003906c-0.019531 0.03125-0.023437 0.070313-0.011718 0.10938 0.007812 0.035156 0.035156 0.066406 0.066406 0.085938l4.3984 2.5391c0.035156 0.023438 0.074218 0.027344 0.11328 0.015625 0.039062-0.007813 0.070312-0.03125 0.089843-0.066406l2.5391-4.3984v-0.003906c0.035156-0.066406 0.011719-0.15234-0.054687-0.19531l-4.3984-2.5391h-0.003906c-0.019532-0.015625-0.042969-0.03125-0.070313-0.039062zm-3.9414 3.7344z"/>
 <path d="m55.023 72.992c-0.66406 0-1.2422-0.44531-1.4141-1.0859-3.0547-11.398 0.57812-15.289 9.0781-23.012v0.003907c0.37891-0.34375 0.91016-0.46484 1.4023-0.32031 0.48828 0.14453 0.86719 0.53516 0.99609 1.0312l1.293 4.8281c2.1836 8.1484-2.6406 16.281-10.977 18.516l0.003906-0.003906c-0.125 0.03125-0.25391 0.046875-0.38281 0.042969zm7.8672-20.297c-6.4844 6.0156-8.5938 9.125-6.8164 16.953 5.8594-2.293 9.1172-8.375 7.4844-14.453z"/>
 <path d="m53.094 75.844c-0.58984 0-1.125-0.35156-1.3516-0.89453-0.23047-0.54297-0.10938-1.1719 0.30469-1.5938 2.3555-2.4141 6.8164-10.867 7.2266-13.707 0.12891-0.78906 0.86719-1.3281 1.6562-1.2109 0.79297 0.11328 1.3438 0.84375 1.2422 1.6328-0.5 3.4336-5.2344 12.461-8.0391 15.328v0.003906c-0.26953 0.28125-0.64844 0.44141-1.0391 0.44141z"/>
 <path d="m35.602 59.57c-0.085937 0-0.16797-0.007812-0.25-0.023437-0.80078-0.13672-1.3359-0.89062-1.1953-1.6875l8.2578-48.125c0.097657-0.58984 0.55078-1.0625 1.1406-1.1836l21.414-4.5156c0.79297-0.16797 1.5703 0.33984 1.7344 1.1328 0.16797 0.78906-0.33984 1.5664-1.1328 1.7344l-20.438 4.3086-8.0938 47.141c-0.11719 0.70313-0.72656 1.2188-1.4375 1.2188z"/>
 <path d="m42.461 81.398c-0.53906-0.003907-1.0703-0.14453-1.5352-0.41406l-4.3984-2.5391h-0.003906c-0.70313-0.41016-1.2227-1.082-1.4336-1.8711-0.21094-0.78516-0.097656-1.625 0.30859-2.332l2.5391-4.3984c0.85156-1.4727 2.7305-1.9766 4.2031-1.125l4.3984 2.5391c1.4688 0.84766 1.9727 2.7266 1.125 4.1992l-2.5391 4.3984v0.003906c-0.55078 0.94922-1.5664 1.5352-2.6641 1.5391zm-1.8555-10.156h-0.003907c-0.050781-0.003907-0.097656 0.023437-0.125 0.070312l-2.5391 4.3984c-0.019531 0.035156-0.023438 0.074218-0.015625 0.11328 0.011719 0.039062 0.035156 0.070312 0.070313 0.089843l4.3984 2.5391v-0.003906c0.070313 0.039062 0.15625 0.015625 0.19531-0.050781l2.5391-4.3984c0.039062-0.070312 0.015625-0.15625-0.054688-0.19531l-4.3984-2.5391c-0.019531-0.019531-0.042969-0.027344-0.070313-0.03125zm-3.9336 3.7383z"/>
</svg>