<?xml version="1.0" encoding="iso-8859-1"?>
<!-- Uploaded to: SVG Repo, www.svgrepo.com, Generator: SVG Repo Mixer Tools -->
<svg fill="#000000" version="1.1" id="Layer_1" xmlns="http://www.w3.org/2000/svg" xmlns:xlink="http://www.w3.org/1999/xlink" 
	 viewBox="0 0 290.626 290.626" xml:space="preserve">
<g>
	<g>
		<g>
			<path d="M267.188,253.459v-14.063h9.375v-9.375h-9.375v-42.188h9.375v-9.375h-9.375v-14.063h4.688v-9.375h-37.5v9.375h4.688
				v14.063h-8.883l-0.52-9.891c-0.023-0.23-1.434-13.116-2.695-32.297h30.848v-37.5H225.25c-0.112-4.603-0.188-9.305-0.22-14.063
				h30.223v0.001l35.372-40.425V27.792l-5.306,0.708c-0.703,0.094-70.805,9.333-140.006,9.333C76.14,37.833,6.01,28.594,5.307,28.5
				L0,27.792v16.491l35.372,40.425h30.225c-0.033,4.758-0.103,9.459-0.22,14.063H32.813v37.5h30.848
				c-1.266,19.223-2.677,32.184-2.714,32.564l-0.511,9.623h-8.873v-14.063h4.688v-9.375h-37.5v9.375h4.688v14.063h-9.375v9.375
				h9.375v42.188h-9.375v9.375h9.375v14.063H0v9.375h23.438h28.125h56.25h28.125h18.75h28.125h56.25h28.125h23.438v-9.375H267.188z
				 M42.188,253.458h-9.375v-89.063h9.375V253.458z M56.489,253.458h-4.927v-14.063h0.001h5.667L56.489,253.458z M57.722,230.021
				h-6.159v-42.188h8.381L57.722,230.021z M64.229,126.895H42.188v-18.75h22.903C64.857,114.722,64.561,121.017,64.229,126.895z
				 M9.375,40.758v-2.302c17.747,2.142,77.161,8.752,135.938,8.752c58.777,0,118.191-6.609,135.938-8.752v2.302l-5.747,6.567
				c-2.648,0.511-49.256,9.258-130.191,9.258c-80.789,0-127.5-8.738-130.191-9.258L9.375,40.758z M39.628,75.333L24.811,58.397
				c18.966,2.766,60.506,7.561,120.502,7.561c59.996,0,101.536-4.795,120.502-7.561l-14.817,16.936H168.75v-4.688h-46.875v4.688
				H39.628z M159.375,80.02v28.125H131.25V80.02H159.375z M65.878,253.458l4.406-83.859c0.047-0.413,4.397-40.177,4.688-84.891
				h9.431c0.295,44.719,4.641,84.473,4.664,84.623l4.43,84.127H65.878z M93.778,84.707h28.097V98.77H93.998
				C93.885,94.167,93.81,89.465,93.778,84.707z M107.812,253.458h-4.926l-0.741-14.063h5.667V253.458z M107.813,230.02h-6.164
				l-2.227-42.188h8.391V230.02z M126.563,253.458h-9.375v-89.063h9.375V253.458z M173.438,253.458h-9.375v-89.063h9.375V253.458z
				 M187.739,253.458h-4.927v-14.063h0.001h5.667L187.739,253.458z M188.972,230.021h-6.159v-42.188h8.381L188.972,230.021z
				 M192.198,168.834l-0.511,9.623h-8.873v-14.063h4.688v-9.375H150v9.375h4.688v89.063h-18.75v-89.062h4.688v-9.375h-37.5v9.375
				h4.688v14.063H98.93l-0.52-9.891c-0.023-0.23-1.434-13.116-2.695-32.297h99.197C193.646,155.493,192.235,168.454,192.198,168.834
				z M195.483,126.895H95.142c-0.328-5.873-0.623-12.173-0.862-18.75h27.595v9.375h46.875v-9.375h27.591
				C196.106,114.722,195.811,121.017,195.483,126.895z M196.627,98.77H168.75V84.708h28.097
				C196.814,89.466,196.744,94.167,196.627,98.77z M197.128,253.458l4.406-83.859c0.047-0.413,4.397-40.177,4.688-84.891h9.431
				c0.295,44.719,4.641,84.473,4.664,84.623l4.43,84.127H197.128z M225.53,108.145h22.908v18.75h-22.045
				C226.065,121.022,225.77,114.722,225.53,108.145z M239.062,253.458h-4.926l-0.741-14.063h5.667V253.458z M239.063,230.021h-6.164
				l-2.227-42.188h8.391V230.021z M257.813,253.458h-9.375v-89.063h9.375V253.458z"/>
			<rect x="140.625" y="89.395" width="9.375" height="9.375"/>
			<rect x="75" y="239.395" width="9.375" height="9.375"/>
			<rect x="75" y="220.645" width="9.375" height="9.375"/>
			<rect x="206.25" y="239.395" width="9.375" height="9.375"/>
			<rect x="206.25" y="220.645" width="9.375" height="9.375"/>
		</g>
	</g>
</g>
</svg>