<?xml version="1.0" encoding="iso-8859-1"?>
<!-- Uploaded to: SVG Repo, www.svgrepo.com, Generator: SVG Repo Mixer Tools -->
<svg fill="#000000" version="1.1" id="Layer_1" xmlns="http://www.w3.org/2000/svg" xmlns:xlink="http://www.w3.org/1999/xlink" 
	 viewBox="0 0 286.154 286.154" xml:space="preserve">
<g>
	<g>
		<g>
			<path d="M263.077,258.462V240h-27.692v-55.385h23.077l1.265-9.051c-0.305-0.092-30.388-8.885-56.649-30.097v-11.622h46.154
				l1.117-9.092c-0.351-0.088-34.735-8.894-61.117-30.069V83.077h18.462l1.874-8.834c-0.388-0.175-37.68-17.026-56.022-41.751
				l7.288-11.575l0.471-0.997c0.258-0.762,2.363-7.606-1.805-13.38C156.443,2.294,151.085,0,143.589,0h-0.512
				c-7.495,0.097-12.849,2.294-15.905,6.54c-4.163,5.774-2.058,12.618-1.805,13.38l7.532,12.175
				c-18.235,24.942-55.925,41.972-56.317,42.148l1.878,8.834h18.462v11.608c-26.331,21.129-60.771,29.982-61.122,30.069l1.122,9.092
				h46.154v11.622c-26.202,21.162-56.345,30.009-56.654,30.097l1.269,9.051h23.077V240H23.077v18.462H0v27.692h286.154v-27.692
				H263.077z M134.658,11.94c1.237-1.712,4.311-2.672,8.677-2.709c4.334,0.037,7.403,0.983,8.649,2.677
				c1.145,1.546,0.84,3.798,0.655,4.703l-6.983,11.082h-4.643l-6.983-11.095C133.837,15.702,133.542,13.495,134.658,11.94z
				 M140.88,36.923h4.389c11.598,16.205,30.143,29.022,43.671,36.923H97.214C110.737,65.945,129.286,53.128,140.88,36.923z
				 M180,83.077v9.231h-73.846v-9.231H180z M63.974,124.615c12.009-5.155,26.409-12.692,39.217-23.077h79.768
				c12.808,10.385,27.212,17.922,39.217,23.077H63.974z M193.846,133.846v9.231h-27.692v-9.231H193.846z M156.923,133.846v9.231
				h-32.308v-9.231H156.923z M115.385,133.846v9.231H92.308v-9.231H115.385z M89.345,152.308h107.46
				c12.748,10.385,26.225,17.922,37.209,23.077H52.14C63.125,170.229,76.602,162.692,89.345,152.308z M216.923,193.846v-9.231h9.231
				v9.231H216.923z M226.154,203.077V240h-9.231v-36.923H226.154z M193.846,212.308V240h-4.615v-36.923h18.462V240h-4.616v-27.692
				H193.846z M189.231,193.846v-9.231h18.462v9.231H189.231z M170.769,193.846v-9.231H180v9.231H170.769z M180,203.077V240h-9.231
				v-36.923H180z M115.385,203.077V240h-9.231v-36.923H115.385z M106.154,193.846v-9.231h9.231v9.231H106.154z M115.384,249.231
				h55.385v9.231h-55.385V249.231z M129.231,212.308V240h-4.615v-36.923h36.923V240h-4.615v-27.692H129.231z M147.692,221.538V240
				h-9.231v-18.462H147.692z M161.538,193.846h-36.923v-9.231h36.923V193.846z M83.077,212.308V240h-4.615v-36.923h18.462V240
				h-4.615v-27.692H83.077z M78.462,193.846v-9.231h18.461v9.231H78.462z M60,193.846v-9.231h9.231v9.231H60z M69.231,203.077V240
				H60v-36.923H69.231z M32.308,249.231H50.77h55.385v9.231H32.308V249.231z M96.923,276.923H9.231v-9.231h13.846h73.846V276.923z
				 M180,276.923h-73.846v-9.231H180V276.923z M180,249.231h55.385h18.461v9.231H180V249.231z M276.923,276.923h-87.692v-9.231
				h73.846h13.846V276.923z"/>
			<rect x="96.923" y="110.769" width="9.231" height="9.231"/>
			<rect x="115.385" y="110.769" width="9.231" height="9.231"/>
			<rect x="133.846" y="110.769" width="9.231" height="9.231"/>
			<rect x="189.231" y="161.538" width="9.231" height="9.231"/>
			<rect x="124.615" y="60" width="9.231" height="9.231"/>
		</g>
	</g>
</g>
</svg>