<?xml version="1.0" encoding="utf-8"?>
<!-- Uploaded to: SVG Repo, www.svgrepo.com, Generator: SVG Repo Mixer Tools -->
<!DOCTYPE svg PUBLIC "-//W3C//DTD SVG 1.1//EN" "http://www.w3.org/Graphics/SVG/1.1/DTD/svg11.dtd">
<svg fill="#000000" width="800px" height="800px" viewBox="0 0 1000 1000" version="1.1" xmlns="http://www.w3.org/2000/svg" xmlns:xlink="http://www.w3.org/1999/xlink"  enable-background="new 0 0 1000 1000" xml:space="preserve">

<g>
<g transform="translate(0.000000,512.000000) scale(0.100000,-0.100000)">
<path d="M2782.8,4673.1c-193.4-193.4-360-367.6-371.5-388.7c-61.3-111-91.9-76.6,1169.9-1338.4l1189-1189L3659.7,646.5L2549.2-464l-210.6,210.6L2128-42.7l865.4,865.4l865.4,865.4l139.8-135.9c130.2-124.5,145.5-134,203-122.5c68.9,13.4,147.4,90,147.4,147.4c0,68.9-51.7,139.8-235.5,319.8c-283.4,277.6-137.9,367.6-1353.7-848.2C1787.2,74,1737.4,22.4,1737.4-42.7c0-65.1,24.9-95.7,373.4-442.3c338.9-337,379.1-371.5,438.5-371.5c61.3,0,145.5,78.5,1258,1190.9L5000,1527.3L6110.5,416.8L7221-693.7l-210.6-210.6L6799.8-1115l-865.4,865.4l-865.4,865.4l128.3,134c103.4,105.3,128.3,143.6,128.3,191.5c0,86.2-72.8,155.1-166.6,155.1c-65.1,0-88.1-17.2-277.6-206.8c-220.2-220.2-237.4-254.7-180-363.8c15.3-28.7,474.8-497.8,1020.5-1041.6c972.7-970.8,995.6-991.8,1068.4-991.8c70.8,0,90,15.3,442.3,365.7c203,201,371.5,384.9,375.3,409.7c5.7,23,1.9,63.2-7.7,88.1c-9.6,24.9-545.7,576.3-1192.8,1223.5L5229.8,1757.1l1110.5,1110.5l1110.5,1110.5l210.6-210.6l210.6-210.6l-865.4-865.4L6141.1,1826l-128.3,122.5c-107.2,105.3-139.8,124.5-195.3,124.5c-88.1,0-145.5-49.8-160.8-139.8c-11.5-70.8-7.6-74.7,197.2-281.5c157-157,224-214.4,271.9-222.1c63.2-13.4,74.7-3.8,1095.2,1016.7c568.7,568.7,1035.8,1051.2,1043.5,1076.1c5.7,24.9-1.9,68.9-17.2,97.6c-15.3,28.7-185.7,208.7-379.1,402.1c-319.8,315.9-358,348.5-417.4,348.5c-61.3,0-147.4-80.4-1258-1190.9L5000,1986.8L3889.5,3097.3L2779,4207.9l210.6,210.6l210.6,210.6l865.4-865.4l865.4-865.4l-128.3-134c-99.6-101.5-128.3-145.5-128.3-189.6c0-68.9,59.4-149.4,122.5-160.8c78.5-15.3,147.4,30.6,342.7,227.9c160.8,166.6,185.7,201,185.7,256.6c0,59.4-76.6,139.8-1030.1,1093.3c-959.3,959.3-1033.9,1030.1-1093.3,1030.1C3140.8,5021.6,3102.5,4989.1,2782.8,4673.1z"/>
<path d="M3412.7-347.2c-34.5-38.3-46-80.4-61.3-243.1c-44-482.5-149.3-919.1-327.4-1370.9l-78.5-197.2h-361.9c-409.7,0-474.8-13.4-509.3-113c-30.6-88.1,3.8-172.3,84.2-204.9c53.6-23,511.2-26.8,2837.6-26.8c2020,0,2791.6,5.7,2837.6,21.1c137.9,47.9,137.9,254.7,0,302.5c-38.3,13.4-202.9,21.1-421.2,21.1h-358l-72.8,187.6c-88.1,222.1-155.1,300.6-247,283.4c-70.8-13.4-145.5-91.9-145.5-151.3c1.9-23,26.8-105.3,55.5-180l55.5-139.8H4998.1H3297.8l34.5,82.3c166.6,388.7,333.2,1122,350.4,1539.4c5.7,122.5,0,141.7-40.2,185.7C3579.3-284,3474-282.1,3412.7-347.2z"/>
<path d="M4565.4-577l-53.6-45.9v-392.5c0-390.6,0-394.4,46-442.3l46-49.8H5000h396.3l46,49.8c45.9,47.9,45.9,51.7,45.9,442.3v392.5l-53.6,45.9c-53.6,46-59.3,46-434.6,46S4619-531,4565.4-577z M5168.5-1023.1l5.8-158.9H5000h-172.3v149.3c0,82.3,5.7,157,13.4,164.7c7.7,7.7,82.3,9.6,168.5,7.7l153.2-5.7L5168.5-1023.1z"/>
<path d="M3094.9-2704.2c-34.5-32.5-47.9-67-47.9-116.8c0-61.3,19.1-88.1,162.7-235.5l162.7-166.6v-616.5v-616.5H1789.1c-1677.3-1.9-1619.8,1.9-1667.7-90c-36.4-67-26.8-120.6,32.5-180l55.5-55.5H5000h4790.6l55.5,55.5c59.4,59.3,68.9,112.9,32.6,180c-47.9,91.9,9.6,88.1-1665.8,90H6627.5v616.5v616.5l162.7,166.6C6933.8-2909,6953-2882.2,6953-2821c0,91.9-68.9,164.7-155.1,164.7c-53.6,0-91.9-30.6-273.8-210.6l-212.5-208.7l-5.7-691.2l-5.7-689.3H5000H3699.9l-5.8,689.3l-5.7,691.2l-212.5,208.7c-181.9,180-220.2,210.6-273.8,210.6C3161.9-2656.3,3123.6-2673.5,3094.9-2704.2z"/>
<path d="M4883.2-3203.9c-42.1-44.1-46-68.9-51.7-243.2c-3.8-158.9,1.9-208.7,28.7-262.3c65.1-126.4,229.8-120.6,285.3,13.4c23,51.7,28.7,120.6,23,256.6c-5.7,166.6-11.5,191.5-51.7,235.5C5051.7-3135,4948.3-3135,4883.2-3203.9z"/>
</g>
</g>
</svg>