<?xml version="1.0" encoding="iso-8859-1"?>
<!-- Uploaded to: SVG Repo, www.svgrepo.com, Generator: SVG Repo Mixer Tools -->
<svg fill="#000000" version="1.1" id="Layer_1" xmlns="http://www.w3.org/2000/svg" xmlns:xlink="http://www.w3.org/1999/xlink" 
	 viewBox="0 0 286.154 286.154" xml:space="preserve">
<g>
	<g>
		<g>
			<path d="M230.769,258.462h-23.077V230.77h9.231c6.383,0,18.462-2.894,18.462-13.846h-9.231c0,4.269-8.788,4.602-8.82,4.638
				c-0.323-0.069-8.548-2.091-24.263-25.662l-1.371-2.054H180V180h13.846c6.383,0,18.462-2.894,18.462-13.846h-9.231
				c0,4.302-8.917,4.606-8.917,4.629c-0.226-0.037-7.818-1.491-19.431-20.852l-1.348-2.238h-2.612v-9.231h23.077
				c6.383,0,18.462-2.894,18.462-13.846h-9.231c0,4.302-8.917,4.606-8.917,4.629c-0.226-0.037-7.818-1.491-19.431-20.852
				l-1.348-2.238h-2.612v-9.231h23.077c6.383,0,18.462-2.894,18.462-13.846h-9.231c0,4.302-8.917,4.606-8.917,4.629
				c-0.226-0.037-7.818-1.491-19.431-20.852l-1.348-2.238h-2.612v-9.231h17.372h1.089c6.383,0,18.462-2.894,18.462-13.846h-9.231
				c0,3.475-5.82,4.338-8.215,4.551c-5.035-2.695-27-15.115-42.554-33.923V0h-9.231v12.166
				c-15.554,18.808-37.514,31.223-42.549,33.923c-2.409-0.212-8.22-1.08-8.22-4.551h-9.231c0,10.952,12.078,13.846,18.462,13.846
				h1.089h17.372v9.231h-2.612l-1.343,2.238c-11.667,19.445-19.274,20.83-19.107,20.839c-0.226-0.005-9.245-0.286-9.245-4.615
				h-9.231c0,10.952,12.078,13.846,18.462,13.846h23.077v9.231h-2.612l-1.343,2.238c-11.668,19.445-19.274,20.829-19.108,20.838
				c-0.226-0.005-9.245-0.286-9.245-4.615h-9.231c0,10.952,12.078,13.846,18.462,13.846h23.077v9.231h-2.612l-1.343,2.238
				c-11.668,19.445-19.274,20.829-19.108,20.838c-0.226-0.005-9.245-0.286-9.245-4.615h-9.231c0,10.952,12.078,13.846,18.462,13.846
				h13.846v13.846h-11.7l-1.371,2.054c-15.812,23.718-24.042,25.615-23.848,25.638C68.93,221.528,60,221.228,60,216.922h-9.231
				c0,10.952,12.078,13.846,18.462,13.846h9.231v27.692H55.385v18.462H4.615v9.231h50.769h175.385h32.308v-9.231h-32.308V258.462z
				 M186.78,203.076c5.806,8.498,10.763,14.364,14.912,18.462h-23.455l-9.231-18.462H186.78z M198.462,230.77v27.692h-23.077V230.77
				H198.462z M118.237,221.539l9.231-18.462h31.218l9.231,18.462H118.237z M166.154,230.769v27.692H120v-27.692H166.154z
				 M147.693,193.846v-9.231h-9.231v9.231h-23.077V180h55.385v13.846H147.693z M113.663,46.154
				c8.686-5.792,19.809-14.303,29.414-25.145c9.605,10.842,20.728,19.352,29.414,25.145H113.663z M138.461,60v4.615h-13.846v-9.23
				h36.923v9.231h-13.846V60H138.461z M107.478,87.692c3.153-3.304,6.67-7.749,10.491-13.846h50.215
				c3.822,6.097,7.338,10.542,10.486,13.846H107.478z M138.461,101.539v4.615h-13.846v-9.231h36.923v9.231h-13.846v-4.615H138.461z
				 M107.478,129.231c3.153-3.305,6.67-7.749,10.491-13.846h50.215c3.822,6.097,7.338,10.542,10.486,13.846H107.478z
				 M138.461,143.078v4.615h-13.846v-9.231h36.923v9.231h-13.846v-4.615H138.461z M117.969,156.923h50.215
				c3.822,6.097,7.338,10.542,10.486,13.846h-71.192C110.631,167.465,114.148,163.02,117.969,156.923z M99.374,203.077h17.774
				l-9.231,18.462H84.462C88.611,217.44,93.568,211.574,99.374,203.077z M110.769,230.769v27.692H87.692v-27.692H110.769z
				 M221.538,276.923H64.615v-9.231h13.846h129.231h13.846V276.923z"/>
			<rect x="129.231" y="240" width="9.231" height="9.231"/>
			<rect x="92.308" y="240" width="9.231" height="9.231"/>
			<rect x="184.615" y="240" width="9.231" height="9.231"/>
			<rect x="147.692" y="240" width="9.231" height="9.231"/>
			<rect x="272.308" y="276.923" width="9.231" height="9.231"/>
		</g>
	</g>
</g>
</svg>