<?xml version="1.0" ?><!-- Uploaded to: SVG Repo, www.svgrepo.com, Generator: SVG Repo Mixer Tools -->
<svg fill="#000000" width="800px" height="800px" viewBox="0 0 64 64" data-name="Layer 1" id="Layer_1" xmlns="http://www.w3.org/2000/svg"><path d="M26.9575,27.48A11,11,0,0,0,12.2217,43.7783l.001.0015a11,11,0,1,0,14.7348-16.3ZM20.377,34.4927A8.997,8.997,0,0,0,15.7559,28.07,9.0811,9.0811,0,0,1,26.582,29.8767,6.9787,6.9787,0,0,1,20.377,34.4927Zm-8.3449,5.6945A9.0147,9.0147,0,0,1,13.86,29.4329c6.1444,2.0777,6.1434,11.0362.0162,13.1487A8.5426,8.5426,0,0,1,12.0321,40.1872Zm14.3322,2.1771a9.0151,9.0151,0,0,1-10.6247,1.56,8.8926,8.8926,0,0,0,4.7479-7.4452,8.8975,8.8975,0,0,0,7.437-4.74A9.0149,9.0149,0,0,1,26.3643,42.3643Z"/><path d="M44,11A16.9075,16.9075,0,0,0,28.437,21.2531C17.323,14.7207,2.8627,23.0849,3,36c.2739,18.4167,25.013,23.5449,32.5907,6.77C46.6924,49.2281,61.1317,40.9293,61,28A17.0809,17.0809,0,0,0,44,11ZM30.6064,46.6064C21.2256,56.0187,4.9771,49.2858,5,36,4.8848,24.1357,18.5441,16.86,28.3248,23.5173a14.9514,14.9514,0,0,1,6.5113,10.3743,15.0158,15.0158,0,0,1-4.23,12.7148Zm5.4676-22.87a8.9348,8.9348,0,0,0,7.4408,4.7508,8.9092,8.9092,0,0,0,4.7455,7.437A9.0108,9.0108,0,0,1,36.8,33.3834a16.8491,16.8491,0,0,0-1.784-5.3684A8.9487,8.9487,0,0,1,36.074,23.7363Zm1.5533-2.0912a9.04,9.04,0,0,1,12.94.2149c-2.019,6.1056-11.0554,6.1532-13.1491.0163C37.4888,21.8,37.5533,21.7194,37.6273,21.6451ZM51.245,33.3221a7.46,7.46,0,0,1-1.1214,1.26,6.9784,6.9784,0,0,1-4.6168-6.2046A9.0194,9.0194,0,0,0,51.93,23.7563,9.1,9.1,0,0,1,51.245,33.3221Zm3.3614,5.2843A15.0209,15.0209,0,0,1,36.293,40.8651a18.3786,18.3786,0,0,0,.696-4.3936C47.4367,44.6944,60.7027,31.4221,52.48,20.9981a11.0238,11.0238,0,0,0-16.258-.7764l-.001.0005a11.1047,11.1047,0,0,0-2.9014,5.2235,17.15,17.15,0,0,0-3.1972-3.1C33.883,12.521,47.3235,9.8228,54.6065,17.3938A15.07,15.07,0,0,1,54.6064,38.6064Z"/><path d="M23,38a1,1,0,0,0,0,2A1,1,0,0,0,23,38Z"/><path d="M41,32a1,1,0,0,0,0-2A1,1,0,0,0,41,32Z"/></svg>