<?xml version="1.0" encoding="utf-8"?>
<svg xmlns="http://www.w3.org/2000/svg" viewBox="240.0771 90.6375 60.0261 99.9998" width="60.0261px" height="99.9998px"><g id="object-0"><g transform="matrix(0.999999, 0, 0, 0.999999, 220.089859, 90.637611)" style="transform-origin: 50.0003px -81.6376px;"><path d="m67.227 0h-34.453c-5.4141 0.0039062-9.9844 4.0312-10.664 9.4062-1.5273 13.477-2.2305 27.031-2.1094 40.594 0 33.137 1.6367 40.883 1.7031 41.195h0.015625c0.55859 6.0391 14.902 8.8047 28.281 8.8047s27.723-2.7656 28.281-8.8086h0.015625c0.066406-0.30859 1.7031-8.0547 1.7031-41.191 0.12109-13.562-0.58203-27.121-2.1055-40.598-0.68359-5.3711-5.2539-9.4023-10.668-9.4023zm-41.812 9.8164c0.47266-3.707 3.625-6.4844 7.3594-6.4844h34.453c3.7344 0 6.8867 2.7773 7.3594 6.4844 1.5078 13.34 2.2031 26.758 2.082 40.184 0 20.797-0.66797 31.512-1.1367 36.559-4.9062-3.332-15.488-4.8906-25.531-4.8906s-20.625 1.5586-25.527 4.8906c-0.47266-5.0469-1.1406-15.762-1.1406-36.559-0.12109-13.426 0.57422-26.844 2.082-40.184zm24.586 75.184c4.4531-0.027344 8.9023 0.30859 13.297 1.0117-0.36328 1.457-5.0156 3.9883-13.297 3.9883s-12.934-2.5312-13.297-3.9883c4.3945-0.70312 8.8438-1.0391 13.297-1.0117zm0 11.668c-16.168 0-25-3.8516-25-5.832 0-1.1328 2.9102-2.8789 8.4219-4.168 0.89062 4.3789 8.7734 6.668 16.578 6.668 7.8008 0 15.688-2.2891 16.578-6.668 5.5117 1.2852 8.4219 3.0312 8.4219 4.1641 0 1.9805-8.8242 5.8359-25 5.8359z"/><path d="m48.246 70.301c3.1836 0.88672 6.4727 1.3477 9.7812 1.3672 2.6055 0.023437 5.1992-0.32422 7.707-1.0273 0.95312-0.25391 1.6953-0.99219 1.9531-1.9414 0.25781-0.95312-0.011719-1.9648-0.70312-2.6641-4.1875-4.2148-9.457-7.1875-15.23-8.5859-5.6836-1.7227-11.734-1.8438-17.48-0.34375-0.95313 0.25-1.6992 0.98828-1.9609 1.9414-0.25781 0.94922 0.011719 1.9648 0.70312 2.6641 4.1875 4.2148 9.457 7.1875 15.23 8.5898zm2.6328-9.6367c4.8711 1.1953 9.3594 3.6016 13.043 7.0039-4.9023 1.0508-9.9961 0.84766-14.801-0.59375-4.8711-1.1914-9.3594-3.6055-13.043-7.0078 4.9062-1.0508 9.9961-0.84375 14.801 0.60156z"/><path d="m48.246 49.715c3.1836 0.88672 6.4766 1.3477 9.7812 1.3672 2.6055 0.023438 5.1992-0.32031 7.7031-1.0273 0.95312-0.25 1.6992-0.98828 1.957-1.9414 0.25781-0.94922-0.011719-1.9648-0.70312-2.6602-4.1875-4.2148-9.457-7.1875-15.23-8.5898-5.6836-1.7227-11.734-1.8398-17.484-0.34375-0.95312 0.25-1.6992 0.99219-1.957 1.9414-0.25781 0.94922 0.007812 1.9648 0.70312 2.6641 4.1836 4.2148 9.457 7.1875 15.23 8.5898zm2.6328-9.6328v-0.003906c4.8711 1.1953 9.3594 3.6094 13.043 7.0117-4.9023 1.0586-9.9961 0.85547-14.801-0.59375-4.8711-1.1914-9.3594-3.6055-13.043-7.0078 4.9023-1.0547 9.9961-0.85156 14.801 0.58984z"/><path d="m48.246 29.129c3.1836 0.89062 6.4727 1.3516 9.7812 1.3711 2.6055 0.023438 5.1992-0.32422 7.707-1.0273 0.95312-0.25391 1.6953-0.99219 1.9531-1.9414 0.25781-0.95312-0.011719-1.9648-0.70312-2.6641-4.1875-4.2148-9.457-7.1875-15.23-8.5859-5.6836-1.7266-11.734-1.8438-17.484-0.34375-0.95312 0.25-1.6992 0.98828-1.957 1.9414-0.25781 0.94922 0.011719 1.9648 0.70312 2.6641 4.1875 4.2148 9.457 7.1875 15.23 8.5859zm2.6328-9.6367v0.003906c4.8711 1.1914 9.3594 3.6016 13.043 7.0039-4.9023 1.0547-9.9961 0.85156-14.801-0.58984-4.8711-1.1953-9.3594-3.6094-13.043-7.0117 4.9023-1.0508 9.9961-0.84375 14.801 0.60156z"/></g></g></svg>